<mxfile host="app.diagrams.net" modified="2022-08-29T15:23:48.149Z" agent="5.0 (Macintosh; Intel Mac OS X 10_15_7) AppleWebKit/537.36 (KHTML, like Gecko) Chrome/104.0.0.0 Safari/537.36" etag="mfYvkfsYnlqBdI9K0yff" version="20.2.7" type="github">
  <diagram id="Tch_EZq0xpf_7Y2Bl9Gk" name="Page-1">
    <mxGraphModel dx="949" dy="611" grid="1" gridSize="10" guides="1" tooltips="1" connect="1" arrows="1" fold="1" page="1" pageScale="1" pageWidth="850" pageHeight="1100" math="0" shadow="0">
      <root>
        <mxCell id="0" />
        <mxCell id="1" parent="0" />
        <mxCell id="dOao3GPd37vw6CxwhaXw-8" value="加载前端代码" style="edgeStyle=orthogonalEdgeStyle;rounded=0;orthogonalLoop=1;jettySize=auto;html=1;entryX=0.5;entryY=1;entryDx=0;entryDy=0;" edge="1" parent="1" source="dOao3GPd37vw6CxwhaXw-3" target="dOao3GPd37vw6CxwhaXw-7">
          <mxGeometry x="-0.0357" relative="1" as="geometry">
            <Array as="points">
              <mxPoint x="355" y="360" />
              <mxPoint x="525" y="360" />
            </Array>
            <mxPoint as="offset" />
          </mxGeometry>
        </mxCell>
        <mxCell id="dOao3GPd37vw6CxwhaXw-3" value="浏览器" style="rounded=0;whiteSpace=wrap;html=1;verticalAlign=bottom;align=right;" vertex="1" parent="1">
          <mxGeometry x="130" y="400" width="450" height="160" as="geometry" />
        </mxCell>
        <mxCell id="dOao3GPd37vw6CxwhaXw-6" value="域名解析" style="edgeStyle=orthogonalEdgeStyle;rounded=0;orthogonalLoop=1;jettySize=auto;html=1;exitX=0.5;exitY=0;exitDx=0;exitDy=0;" edge="1" parent="1" source="dOao3GPd37vw6CxwhaXw-4" target="dOao3GPd37vw6CxwhaXw-5">
          <mxGeometry relative="1" as="geometry">
            <Array as="points">
              <mxPoint x="355" y="360" />
              <mxPoint x="220" y="360" />
            </Array>
          </mxGeometry>
        </mxCell>
        <mxCell id="dOao3GPd37vw6CxwhaXw-18" style="edgeStyle=orthogonalEdgeStyle;rounded=0;orthogonalLoop=1;jettySize=auto;html=1;exitX=0.5;exitY=1;exitDx=0;exitDy=0;endArrow=classic;endFill=1;" edge="1" parent="1" source="dOao3GPd37vw6CxwhaXw-4" target="dOao3GPd37vw6CxwhaXw-11">
          <mxGeometry relative="1" as="geometry" />
        </mxCell>
        <mxCell id="dOao3GPd37vw6CxwhaXw-4" value="前端代码运行沙箱" style="rounded=0;whiteSpace=wrap;html=1;verticalAlign=bottom;align=right;" vertex="1" parent="1">
          <mxGeometry x="150" y="440" width="410" height="80" as="geometry" />
        </mxCell>
        <mxCell id="dOao3GPd37vw6CxwhaXw-5" value="ENS" style="rounded=0;whiteSpace=wrap;html=1;" vertex="1" parent="1">
          <mxGeometry x="170" y="250" width="110" height="40" as="geometry" />
        </mxCell>
        <mxCell id="dOao3GPd37vw6CxwhaXw-7" value="IPFS" style="rounded=0;whiteSpace=wrap;html=1;" vertex="1" parent="1">
          <mxGeometry x="470" y="250" width="110" height="40" as="geometry" />
        </mxCell>
        <mxCell id="dOao3GPd37vw6CxwhaXw-17" style="edgeStyle=orthogonalEdgeStyle;rounded=0;orthogonalLoop=1;jettySize=auto;html=1;entryX=0.5;entryY=0;entryDx=0;entryDy=0;endArrow=classic;endFill=1;" edge="1" parent="1" source="dOao3GPd37vw6CxwhaXw-4" target="dOao3GPd37vw6CxwhaXw-10">
          <mxGeometry relative="1" as="geometry" />
        </mxCell>
        <mxCell id="dOao3GPd37vw6CxwhaXw-9" value="前端代码" style="text;html=1;align=center;verticalAlign=middle;resizable=0;points=[];autosize=1;strokeColor=none;fillColor=none;" vertex="1" parent="1">
          <mxGeometry x="320" y="465" width="70" height="30" as="geometry" />
        </mxCell>
        <mxCell id="dOao3GPd37vw6CxwhaXw-12" style="edgeStyle=orthogonalEdgeStyle;rounded=0;orthogonalLoop=1;jettySize=auto;html=1;exitX=0.5;exitY=1;exitDx=0;exitDy=0;entryX=0.5;entryY=1;entryDx=0;entryDy=0;strokeColor=none;endArrow=classic;endFill=1;" edge="1" parent="1" source="dOao3GPd37vw6CxwhaXw-10" target="dOao3GPd37vw6CxwhaXw-11">
          <mxGeometry relative="1" as="geometry" />
        </mxCell>
        <mxCell id="dOao3GPd37vw6CxwhaXw-10" value="智能合约（链）" style="rounded=0;whiteSpace=wrap;html=1;" vertex="1" parent="1">
          <mxGeometry x="150" y="660" width="110" height="40" as="geometry" />
        </mxCell>
        <mxCell id="dOao3GPd37vw6CxwhaXw-14" style="edgeStyle=orthogonalEdgeStyle;rounded=0;orthogonalLoop=1;jettySize=auto;html=1;entryX=0.5;entryY=1;entryDx=0;entryDy=0;endArrow=classic;endFill=1;exitX=0.5;exitY=1;exitDx=0;exitDy=0;" edge="1" parent="1" source="dOao3GPd37vw6CxwhaXw-11" target="dOao3GPd37vw6CxwhaXw-10">
          <mxGeometry relative="1" as="geometry" />
        </mxCell>
        <mxCell id="dOao3GPd37vw6CxwhaXw-15" value="数据同步" style="edgeLabel;html=1;align=center;verticalAlign=middle;resizable=0;points=[];" vertex="1" connectable="0" parent="dOao3GPd37vw6CxwhaXw-14">
          <mxGeometry x="0.0219" y="-1" relative="1" as="geometry">
            <mxPoint as="offset" />
          </mxGeometry>
        </mxCell>
        <mxCell id="dOao3GPd37vw6CxwhaXw-11" value="API3 or TheGraph" style="rounded=0;whiteSpace=wrap;html=1;" vertex="1" parent="1">
          <mxGeometry x="440" y="660" width="110" height="40" as="geometry" />
        </mxCell>
      </root>
    </mxGraphModel>
  </diagram>
</mxfile>
